<svg width="15" height="15" viewBox="0 0 15 15" fill="none" xmlns="http://www.w3.org/2000/svg">
<path d="M7.47915 15C6.99909 15 6.54687 14.7565 6.22683 14.3321L5.18322 12.9407C5.16235 12.9128 5.07886 12.8781 5.04408 12.8711H4.69621C1.795 12.8711 0 12.0849 0 8.17489V4.69621C0 1.62106 1.62106 0 4.69621 0H10.2621C13.3372 0 14.9583 1.62106 14.9583 4.69621V8.17489C14.9583 11.25 13.3372 12.8711 10.2621 12.8711H9.91422C9.85856 12.8711 9.80986 12.8989 9.77508 12.9407L8.73147 14.3321C8.41144 14.7565 7.95921 15 7.47915 15ZM4.69621 1.0436C2.20548 1.0436 1.0436 2.20548 1.0436 4.69621V8.17489C1.0436 11.3196 2.12199 11.8275 4.69621 11.8275H5.04408C5.3989 11.8275 5.80243 12.0293 6.01811 12.3145L7.06171 13.706C7.30522 14.026 7.65308 14.026 7.89659 13.706L8.94019 12.3145C9.16979 12.0084 9.53157 11.8275 9.91422 11.8275H10.2621C12.7528 11.8275 13.9147 10.6656 13.9147 8.17489V4.69621C13.9147 2.20548 12.7528 1.0436 10.2621 1.0436H4.69621Z" fill="#75839D"/>
<path d="M7.47915 7.47907C7.08954 7.47907 6.78342 7.16598 6.78342 6.78333C6.78342 6.40068 7.0965 6.0876 7.47915 6.0876C7.8618 6.0876 8.17489 6.40068 8.17489 6.78333C8.17489 7.16598 7.86876 7.47907 7.47915 7.47907Z" fill="#75839D"/>
<path d="M10.2619 7.47907C9.87231 7.47907 9.56618 7.16598 9.56618 6.78333C9.56618 6.40068 9.87927 6.0876 10.2619 6.0876C10.6446 6.0876 10.9577 6.40068 10.9577 6.78333C10.9577 7.16598 10.6515 7.47907 10.2619 7.47907Z" fill="#75839D"/>
<path d="M4.69587 7.47907C4.30626 7.47907 4.00014 7.16598 4.00014 6.78333C4.00014 6.40068 4.31322 6.0876 4.69587 6.0876C5.07853 6.0876 5.39161 6.40068 5.39161 6.78333C5.39161 7.16598 5.08548 7.47907 4.69587 7.47907Z" fill="#75839D"/>
</svg>
